<mxfile host="Electron" agent="Mozilla/5.0 (Windows NT 10.0; Win64; x64) AppleWebKit/537.36 (KHTML, like Gecko) draw.io/26.0.16 Chrome/132.0.6834.196 Electron/34.2.0 Safari/537.36" version="26.0.16">
  <diagram name="Seite-1" id="biWN6ty5ey9yoEcqKG6a">
    <mxGraphModel dx="2314" dy="1244" grid="1" gridSize="10" guides="1" tooltips="1" connect="1" arrows="1" fold="1" page="1" pageScale="1" pageWidth="827" pageHeight="1169" math="0" shadow="0">
      <root>
        <mxCell id="0" />
        <mxCell id="1" parent="0" />
        <mxCell id="BHxZur6qq4yey066tpO5-5" value="" style="rounded=0;whiteSpace=wrap;html=1;fillColor=light-dark(#FFFFFF,#FFFFFF);" vertex="1" parent="1">
          <mxGeometry x="80" y="40" width="680" height="1080" as="geometry" />
        </mxCell>
        <mxCell id="BHxZur6qq4yey066tpO5-12" value="" style="rounded=1;whiteSpace=wrap;html=1;fillColor=light-dark(#FFFFFF,#FCFCFC);strokeColor=light-dark(#000000,#000000);" vertex="1" parent="1">
          <mxGeometry x="120" y="80" width="600" height="80" as="geometry" />
        </mxCell>
        <mxCell id="BHxZur6qq4yey066tpO5-13" value="&lt;font style=&quot;color: rgb(0, 255, 0); font-size: 36px;&quot;&gt;&lt;b style=&quot;&quot;&gt;20,69 â‚¬&lt;/b&gt;&lt;/font&gt;" style="text;html=1;align=center;verticalAlign=middle;whiteSpace=wrap;rounded=0;fillColor=none;strokeColor=none;" vertex="1" parent="1">
          <mxGeometry x="340" y="70" width="160" height="100" as="geometry" />
        </mxCell>
      </root>
    </mxGraphModel>
  </diagram>
</mxfile>
